# xmcd
#
# Track frame offsets:
#	150
#	13631
#	25051
#	38749
#	51248
#	63408
#	78415
#	88234
#	99797
#	114368
#	128408
#	143004
#	157201
#	166834
#	180893
#	193345
#
# Disc length: 2763 seconds
#
# Revision: 0
# Processed by: cddbd v1.5.2PL0 Copyright (c) Steve Scherf et al.
# Submitted via: EasyCDDAExtractor 2010.6.0.0
#
DISCID=c30ac910
DTITLE=Daniel O'Donnell - Songs From The Movies And More
DYEAR=2012
DGENRE=Easy Listening
TTITLE0=Somewhere My Love (Lara's Theme)
TTITLE1=Raindrops Keep Falling On My Head
TTITLE2=That's Amore
TTITLE3=Black Hills Of Dakota
TTITLE4=South Of The Border
TTITLE5=Cowboy's Lament (Streets Of Laredo)
TTITLE6=Que Sera Sera (Whatever Will Be, Will Be)
TTITLE7=A White Sports Coat (And A Pink Carnation)
TTITLE8=Home On The Range
TTITLE9=Don't Fence Me In
TTITLE10=Cool Water
TTITLE11=Red River Valley
TTITLE12=A Little Bitty Tear
TTITLE13=Edelweiss
TTITLE14=Singin' In The Rain
TTITLE15=We'll Meet Again
EXTD=
EXTT0=
EXTT1=
EXTT2=
EXTT3=
EXTT4=
EXTT5=
EXTT6=
EXTT7=
EXTT8=
EXTT9=
EXTT10=
EXTT11=
EXTT12=
EXTT13=
EXTT14=
EXTT15=
PLAYORDER=
